# xmcd CD database file
#
# Track frame offsets:
#	183
#	22068
#	38703
#	58123
#	77845
#	93713
#	111600
#	124140
#	142298
#	154915
#	175075
#	196435
#	209180
#	227083
#	247718
#
# Disc length: 3623 seconds
#
# Revision: 2
# Processed by: cddbd v1.5PL3 Copyright (c) Steve Scherf et al.
# Submitted via: CDex 1.51
#
DISCID=e20e250f
DTITLE=Catfish Keith - Jitterbug Swing
DYEAR=1992
DGENRE=Blues
TTITLE0=Jitterbug Swing
TTITLE1=Slap a Suit on You
TTITLE2=Come Back, Old Devil
TTITLE3=Blues at Midnight
TTITLE4=12th Street Rag
TTITLE5=Move to Louisiana
TTITLE6=Gonna Live that Life
TTITLE7=Preachin' the Blues
TTITLE8=Goin' Down to Memphis
TTITLE9=Texas Tea Party
TTITLE10=Oh, Captain
TTITLE11=Fistfull of Riffs
TTITLE12=Police and a Sergeant
TTITLE13=Tell Everybody
TTITLE14=Takin' My Time
EXTD=YEAR: 1992
EXTT0=
EXTT1=
EXTT2=
EXTT3=
EXTT4=
EXTT5=
EXTT6=
EXTT7=
EXTT8=
EXTT9=
EXTT10=
EXTT11=
EXTT12=
EXTT13=
EXTT14=
PLAYORDER=
